<svg width="64" height="64" viewBox="0 0 64 64" xmlns="http://www.w3.org/2000/svg">
  <defs>
    <radialGradient id="gw-blue" cx="0" cy="0" r="1" gradientUnits="userSpaceOnUse" gradientTransform="translate(22 18) rotate(48) scale(56)">
      <stop stop-color="#78A6ED"/>
      <stop offset="0.52" stop-color="#2D5DA8"/>
      <stop offset="1" stop-color="#173768"/>
    </radialGradient>
  </defs>
  <path d="M8 2H56L62 8V56L56 62H8L2 56V8L8 2Z" fill="#130805"/>
  <path d="M8 0H56L64 8V54L56 62H8L0 54V8L8 0Z" fill="url(#gw-blue)"/>
  <path d="M0 51L8 59H56L64 51V56L56 64H8L0 56V51Z" fill="#0A1B38" fill-opacity="0.72"/>
  <g id="gw-monogram" fill="#F7E8BF" shape-rendering="crispEdges">
    <path d="M12 16H24V20H12ZM8 20H12V40H8ZM16 28H28V32H16ZM24 32H28V40H24ZM12 40H24V44H12Z"/>
    <path d="M36 16H40V40H36ZM52 16H56V40H52ZM44 28H48V40H44ZM40 40H44V44H40ZM48 40H52V44H48Z"/>
  </g>
</svg>
